<svg width="24" height="28" viewBox="0 0 24 28" fill="none" xmlns="http://www.w3.org/2000/svg">
<path d="M19.832 27.112L2.12 16.504C1.256 15.96 0.824 15.224 0.824 14.296C0.824 13.464 1.256 12.744 2.12 12.136L19.832 1.48C20.696 1.032 21.528 1.032 22.328 1.48C23.128 1.896 23.528 2.568 23.528 3.496C23.528 4.456 23.128 5.176 22.328 5.656L6.152 15.256V13.192L22.328 22.888C23.128 23.4 23.528 24.104 23.528 25C23.528 25.64 23.32 26.184 22.904 26.632C22.52 27.048 22.04 27.32 21.464 27.448C20.888 27.544 20.344 27.432 19.832 27.112Z" fill="white"/>
</svg>
