<svg width="50" height="50" viewBox="0 0 50 50" fill="none" xmlns="http://www.w3.org/2000/svg">
<g clip-path="url(#clip0_63_60)">
<g filter="url(#filter0_i_63_60)">
<path d="M25 30.5C28.0376 30.5 30.5 28.0375 30.5 25C30.5 21.9624 28.0376 19.5 25 19.5C21.9625 19.5 19.5 21.9624 19.5 25C19.5 28.0375 21.9625 30.5 25 30.5Z" stroke="white" stroke-width="3" stroke-linecap="round" stroke-linejoin="round"/>
<path d="M38.5667 30.5C38.3227 31.0529 38.2499 31.6663 38.3577 32.2611C38.4655 32.8558 38.7491 33.4046 39.1717 33.8366L39.2817 33.9466C39.6226 34.2872 39.8931 34.6916 40.0776 35.1367C40.2621 35.5818 40.3571 36.059 40.3571 36.5408C40.3571 37.0227 40.2621 37.4998 40.0776 37.9449C39.8931 38.3901 39.6226 38.7944 39.2817 39.135C38.9412 39.4759 38.5368 39.7463 38.0917 39.9309C37.6465 40.1154 37.1694 40.2104 36.6875 40.2104C36.2057 40.2104 35.7286 40.1154 35.2834 39.9309C34.8383 39.7463 34.4339 39.4759 34.0934 39.135L33.9834 39.025C33.5513 38.6023 33.0025 38.3188 32.4078 38.211C31.8131 38.1031 31.1997 38.1759 30.6467 38.42C30.1045 38.6524 29.642 39.0383 29.3163 39.5301C28.9905 40.022 28.8157 40.5984 28.8134 41.1883V41.5C28.8134 42.4724 28.4271 43.4051 27.7394 44.0927C27.0518 44.7803 26.1192 45.1666 25.1467 45.1666C24.1742 45.1666 23.2416 44.7803 22.554 44.0927C21.8663 43.4051 21.48 42.4724 21.48 41.5V41.335C21.4658 40.7282 21.2694 40.1396 20.9163 39.6459C20.5632 39.1522 20.0697 38.7762 19.5 38.5666C18.9471 38.3226 18.3337 38.2498 17.739 38.3576C17.1442 38.4655 16.5955 38.749 16.1634 39.1716L16.0534 39.2816C15.7128 39.6226 15.3084 39.893 14.8633 40.0775C14.4182 40.2621 13.9411 40.357 13.4592 40.357C12.9773 40.357 12.5002 40.2621 12.0551 40.0775C11.61 39.893 11.2056 39.6226 10.865 39.2816C10.5241 38.9411 10.2537 38.5367 10.0692 38.0916C9.88463 37.6465 9.78966 37.1693 9.78966 36.6875C9.78966 36.2056 9.88463 35.7285 10.0692 35.2834C10.2537 34.8382 10.5241 34.4338 10.865 34.0933L10.975 33.9833C11.3977 33.5512 11.6812 33.0024 11.789 32.4077C11.8969 31.813 11.8241 31.1996 11.58 30.6466C11.3476 30.1044 10.9618 29.6419 10.4699 29.3162C9.97803 28.9905 9.40165 28.8157 8.81171 28.8133H8.50004C7.52758 28.8133 6.59495 28.427 5.90732 27.7394C5.21968 27.0517 4.83337 26.1191 4.83337 25.1466C4.83337 24.1742 5.21968 23.2416 5.90732 22.5539C6.59495 21.8663 7.52758 21.48 8.50004 21.48H8.66504C9.27186 21.4658 9.86038 21.2694 10.3541 20.9162C10.8478 20.5631 11.2239 20.0697 11.4334 19.5C11.6774 18.947 11.7502 18.3336 11.6424 17.7389C11.5345 17.1442 11.251 16.5954 10.8284 16.1633L10.7184 16.0533C10.3775 15.7128 10.107 15.3084 9.92249 14.8633C9.73797 14.4181 9.64299 13.941 9.64299 13.4591C9.64299 12.9773 9.73797 12.5002 9.92249 12.055C10.107 11.6099 10.3775 11.2055 10.7184 10.865C11.0589 10.5241 11.4633 10.2536 11.9084 10.0691C12.3536 9.88457 12.8307 9.78959 13.3125 9.78959C13.7944 9.78959 14.2715 9.88457 14.7167 10.0691C15.1618 10.2536 15.5662 10.5241 15.9067 10.865L16.0167 10.975C16.4488 11.3976 16.9976 11.6812 17.5923 11.789C18.187 11.8968 18.8004 11.824 19.3534 11.58H19.5C20.0423 11.3476 20.5047 10.9617 20.8305 10.4698C21.1562 9.97797 21.331 9.40159 21.3334 8.81165V8.49998C21.3334 7.52752 21.7197 6.59489 22.4073 5.90725C23.0949 5.21962 24.0276 4.83331 25 4.83331C25.9725 4.83331 26.9051 5.21962 27.5928 5.90725C28.2804 6.59489 28.6667 7.52752 28.6667 8.49998V8.66498C28.6691 9.25492 28.8439 9.8313 29.1696 10.3232C29.4953 10.815 29.9578 11.2009 30.5 11.4333C31.053 11.6774 31.6664 11.7502 32.2611 11.6423C32.8558 11.5345 33.4046 11.251 33.8367 10.8283L33.9467 10.7183C34.2872 10.3774 34.6916 10.1069 35.1368 9.92243C35.5819 9.7379 36.059 9.64293 36.5409 9.64293C37.0227 9.64293 37.4999 9.7379 37.945 9.92243C38.3901 10.1069 38.7945 10.3774 39.135 10.7183C39.4759 11.0588 39.7464 11.4632 39.9309 11.9084C40.1154 12.3535 40.2104 12.8306 40.2104 13.3125C40.2104 13.7943 40.1154 14.2715 39.9309 14.7166C39.7464 15.1617 39.4759 15.5661 39.135 15.9066L39.025 16.0166C38.6024 16.4487 38.3189 16.9975 38.211 17.5922C38.1032 18.187 38.176 18.8003 38.42 19.3533V19.5C38.6524 20.0422 39.0383 20.5047 39.5302 20.8304C40.0221 21.1562 40.5984 21.331 41.1884 21.3333H41.5C42.4725 21.3333 43.4051 21.7196 44.0928 22.4073C44.7804 23.0949 45.1667 24.0275 45.1667 25C45.1667 25.9724 44.7804 26.9051 44.0928 27.5927C43.4051 28.2803 42.4725 28.6666 41.5 28.6666H41.335C40.7451 28.669 40.1687 28.8438 39.6769 29.1695C39.185 29.4953 38.7991 29.9577 38.5667 30.5Z" stroke="white" stroke-width="3" stroke-linecap="round" stroke-linejoin="round"/>
</g>
</g>
<defs>
<filter id="filter0_i_63_60" x="3.33337" y="3.33331" width="43.3334" height="47.3333" filterUnits="userSpaceOnUse" color-interpolation-filters="sRGB">
<feFlood flood-opacity="0" result="BackgroundImageFix"/>
<feBlend mode="normal" in="SourceGraphic" in2="BackgroundImageFix" result="shape"/>
<feColorMatrix in="SourceAlpha" type="matrix" values="0 0 0 0 0 0 0 0 0 0 0 0 0 0 0 0 0 0 127 0" result="hardAlpha"/>
<feOffset dy="4"/>
<feGaussianBlur stdDeviation="2"/>
<feComposite in2="hardAlpha" operator="arithmetic" k2="-1" k3="1"/>
<feColorMatrix type="matrix" values="0 0 0 0 0 0 0 0 0 0 0 0 0 0 0 0 0 0 0.25 0"/>
<feBlend mode="normal" in2="shape" result="effect1_innerShadow_63_60"/>
</filter>
<clipPath id="clip0_63_60">
<rect width="44" height="44" fill="white" transform="translate(3 3)"/>
</clipPath>
</defs>
</svg>
