<svg width="50" height="52" viewBox="0 0 50 52" fill="none" xmlns="http://www.w3.org/2000/svg">
<path d="M18.75 39.9033V13.6936L43.75 9.66132V35.871M18.75 39.9033C18.75 43.2437 15.9518 45.9516 12.5 45.9516C9.04822 45.9516 6.25 43.2437 6.25 39.9033C6.25 36.5628 9.04822 33.8549 12.5 33.8549C15.9518 33.8549 18.75 36.5628 18.75 39.9033ZM43.75 35.871C43.75 39.2114 40.9518 41.9194 37.5 41.9194C34.0482 41.9194 31.25 39.2114 31.25 35.871C31.25 32.5306 34.0482 29.8226 37.5 29.8226C40.9518 29.8226 43.75 32.5306 43.75 35.871Z" stroke="white" stroke-width="3" stroke-linecap="round" stroke-linejoin="round"/>
<ellipse cx="18.3333" cy="16.5161" rx="10" ry="9.67742" fill="white"/>
<path d="M17.2443 22.7571V11.0384H19.233V22.7571H17.2443ZM12.3793 17.892V15.9034H24.098V17.892H12.3793Z" fill="black"/>
</svg>
