<svg width="50" height="50" viewBox="0 0 50 50" fill="none" xmlns="http://www.w3.org/2000/svg">
<path d="M13.3334 39.5833L10.4167 36.6667L22.0834 25L10.4167 13.3333L13.3334 10.4167L25 22.0833L36.6667 10.4167L39.5834 13.3333L27.9167 25L39.5834 36.6667L36.6667 39.5833L25 27.9167L13.3334 39.5833Z" fill="white"/>
<path d="M48.3334 25C48.3334 37.8866 37.8867 48.3333 25 48.3333C12.1134 48.3333 1.66669 37.8866 1.66669 25C1.66669 12.1133 12.1134 1.66666 25 1.66666C37.8867 1.66666 48.3334 12.1133 48.3334 25ZM5.16669 25C5.16669 35.9536 14.0464 44.8333 25 44.8333C35.9537 44.8333 44.8334 35.9536 44.8334 25C44.8334 14.0463 35.9537 5.16666 25 5.16666C14.0464 5.16666 5.16669 14.0463 5.16669 25Z" fill="white"/>
</svg>
