<svg width="52" height="53" viewBox="0 0 52 53" fill="none" xmlns="http://www.w3.org/2000/svg">
<g filter="url(#filter0_d_89_42)">
<mask id="path-1-outside-1_89_42" maskUnits="userSpaceOnUse" x="4" y="0" width="44" height="45" fill="black">
<rect fill="white" x="4" width="44" height="45"/>
<path d="M39.7 41.2L29.25 30.75C28.7167 30.2167 28.45 29.6333 28.45 29C28.45 28.3333 28.7167 27.7333 29.25 27.2C29.7833 26.6667 30.3667 26.4 31 26.4C31.6667 26.4 32.2667 26.6667 32.8 27.2L43.25 37.7C43.75 38.2333 44 38.8167 44 39.45C44.0333 40.0833 43.7833 40.6667 43.25 41.2C42.7167 41.7333 42.1167 42 41.45 42C40.8167 42 40.2333 41.7333 39.7 41.2ZM26.05 42.5C23.1167 42.5 20.4333 42.0167 18 41.05C15.5667 40.05 13.4667 38.6667 11.7 36.9C9.96667 35.1 8.61667 32.9833 7.65 30.55C6.68333 28.0833 6.2 25.3833 6.2 22.45C6.2 19.5167 6.68333 16.8333 7.65 14.4C8.61667 11.9667 9.96667 9.86667 11.7 8.1C13.4667 6.3 15.5667 4.91666 18 3.95C20.4333 2.95 23.1167 2.45 26.05 2.45C28.9833 2.45 31.65 2.95 34.05 3.95C36.4833 4.91666 38.5833 6.3 40.35 8.1C42.1167 9.86667 43.4833 11.9667 44.45 14.4C45.4167 16.8333 45.9 19.5167 45.9 22.45C45.9 25.3833 45.4167 28.0833 44.45 30.55C43.4833 32.9833 42.1167 35.1 40.35 36.9C38.5833 38.6667 36.4833 40.05 34.05 41.05C31.65 42.0167 28.9833 42.5 26.05 42.5ZM26.05 37.8C28.2167 37.8 30.2 37.4167 32 36.65C33.8333 35.85 35.4167 34.7667 36.75 33.4C38.0833 32 39.1 30.3667 39.8 28.5C40.5333 26.6333 40.9 24.6167 40.9 22.45C40.9 20.2833 40.5333 18.2667 39.8 16.4C39.1 14.5333 38.0833 12.9167 36.75 11.55C35.4167 10.15 33.8333 9.06667 32 8.3C30.2 7.53333 28.2167 7.15 26.05 7.15C23.8833 7.15 21.8833 7.53333 20.05 8.3C18.25 9.06667 16.6833 10.15 15.35 11.55C14.05 12.9167 13.0333 14.5333 12.3 16.4C11.5667 18.2667 11.2 20.2833 11.2 22.45C11.2 24.6167 11.5667 26.6333 12.3 28.5C13.0333 30.3667 14.05 32 15.35 33.4C16.6833 34.7667 18.25 35.85 20.05 36.65C21.8833 37.4167 23.8833 37.8 26.05 37.8Z"/>
</mask>
<path d="M39.7 41.2L29.25 30.75C28.7167 30.2167 28.45 29.6333 28.45 29C28.45 28.3333 28.7167 27.7333 29.25 27.2C29.7833 26.6667 30.3667 26.4 31 26.4C31.6667 26.4 32.2667 26.6667 32.8 27.2L43.25 37.7C43.75 38.2333 44 38.8167 44 39.45C44.0333 40.0833 43.7833 40.6667 43.25 41.2C42.7167 41.7333 42.1167 42 41.45 42C40.8167 42 40.2333 41.7333 39.7 41.2ZM26.05 42.5C23.1167 42.5 20.4333 42.0167 18 41.05C15.5667 40.05 13.4667 38.6667 11.7 36.9C9.96667 35.1 8.61667 32.9833 7.65 30.55C6.68333 28.0833 6.2 25.3833 6.2 22.45C6.2 19.5167 6.68333 16.8333 7.65 14.4C8.61667 11.9667 9.96667 9.86667 11.7 8.1C13.4667 6.3 15.5667 4.91666 18 3.95C20.4333 2.95 23.1167 2.45 26.05 2.45C28.9833 2.45 31.65 2.95 34.05 3.95C36.4833 4.91666 38.5833 6.3 40.35 8.1C42.1167 9.86667 43.4833 11.9667 44.45 14.4C45.4167 16.8333 45.9 19.5167 45.9 22.45C45.9 25.3833 45.4167 28.0833 44.45 30.55C43.4833 32.9833 42.1167 35.1 40.35 36.9C38.5833 38.6667 36.4833 40.05 34.05 41.05C31.65 42.0167 28.9833 42.5 26.05 42.5ZM26.05 37.8C28.2167 37.8 30.2 37.4167 32 36.65C33.8333 35.85 35.4167 34.7667 36.75 33.4C38.0833 32 39.1 30.3667 39.8 28.5C40.5333 26.6333 40.9 24.6167 40.9 22.45C40.9 20.2833 40.5333 18.2667 39.8 16.4C39.1 14.5333 38.0833 12.9167 36.75 11.55C35.4167 10.15 33.8333 9.06667 32 8.3C30.2 7.53333 28.2167 7.15 26.05 7.15C23.8833 7.15 21.8833 7.53333 20.05 8.3C18.25 9.06667 16.6833 10.15 15.35 11.55C14.05 12.9167 13.0333 14.5333 12.3 16.4C11.5667 18.2667 11.2 20.2833 11.2 22.45C11.2 24.6167 11.5667 26.6333 12.3 28.5C13.0333 30.3667 14.05 32 15.35 33.4C16.6833 34.7667 18.25 35.85 20.05 36.65C21.8833 37.4167 23.8833 37.8 26.05 37.8Z" fill="white"/>
<path d="M39.7 41.2L38.2858 42.6142L38.2858 42.6142L39.7 41.2ZM29.25 30.75L30.6642 29.3358L30.6642 29.3358L29.25 30.75ZM29.25 27.2L30.6642 28.6142L30.6642 28.6142L29.25 27.2ZM32.8 27.2L34.2176 25.7892L34.2142 25.7858L32.8 27.2ZM43.25 37.7L44.7091 36.3321C44.6955 36.3176 44.6816 36.3033 44.6676 36.2892L43.25 37.7ZM44 39.45H42C42 39.4851 42.0009 39.5201 42.0028 39.5551L44 39.45ZM43.25 41.2L44.6642 42.6142L44.6642 42.6142L43.25 41.2ZM18 41.05L17.2398 42.8999C17.247 42.9029 17.2543 42.9058 17.2616 42.9087L18 41.05ZM11.7 36.9L10.2594 38.2873C10.2681 38.2963 10.2769 38.3053 10.2858 38.3142L11.7 36.9ZM7.65 30.55L5.78787 31.2798L5.7913 31.2884L7.65 30.55ZM7.65 14.4L5.7913 13.6616L5.7913 13.6616L7.65 14.4ZM11.7 8.1L10.2726 6.69906L10.2724 6.69932L11.7 8.1ZM18 3.95L18.7384 5.8087C18.7457 5.8058 18.753 5.80286 18.7602 5.79988L18 3.95ZM34.05 3.95L33.2808 5.79615C33.291 5.80042 33.3013 5.8046 33.3116 5.8087L34.05 3.95ZM40.35 8.1L38.9226 9.50093C38.927 9.50538 38.9314 9.50981 38.9358 9.51421L40.35 8.1ZM44.45 14.4L46.3087 13.6616L46.3087 13.6616L44.45 14.4ZM44.45 30.55L46.3087 31.2884L46.3121 31.2797L44.45 30.55ZM40.35 36.9L41.7642 38.3142C41.7686 38.3098 41.773 38.3054 41.7774 38.3009L40.35 36.9ZM34.05 41.05L34.7972 42.9052L34.8102 42.8999L34.05 41.05ZM32 36.65L32.7837 38.49C32.7891 38.4877 32.7945 38.4854 32.7999 38.4831L32 36.65ZM36.75 33.4L38.1816 34.7966C38.1872 34.7909 38.1927 34.7851 38.1983 34.7793L36.75 33.4ZM39.8 28.5L37.9385 27.7687C37.9347 27.7784 37.931 27.788 37.9273 27.7978L39.8 28.5ZM39.8 16.4L37.9273 17.1022C37.931 17.112 37.9347 17.1216 37.9385 17.1313L39.8 16.4ZM36.75 11.55L35.3017 12.9293C35.3073 12.9351 35.3128 12.9409 35.3184 12.9466L36.75 11.55ZM32 8.3L31.2163 10.1401L31.2284 10.1452L32 8.3ZM20.05 8.3L19.2784 6.4548L19.2663 6.45995L20.05 8.3ZM15.35 11.55L13.9017 10.1707L13.9009 10.1716L15.35 11.55ZM15.35 33.4L13.8844 34.7609C13.8956 34.773 13.9069 34.7849 13.9184 34.7966L15.35 33.4ZM20.05 36.65L19.2377 38.4776C19.2512 38.4836 19.2648 38.4895 19.2784 38.4952L20.05 36.65ZM39.7 41.2L41.1142 39.7858L30.6642 29.3358L29.25 30.75L27.8358 32.1642L38.2858 42.6142L39.7 41.2ZM29.25 30.75L30.6642 29.3358C30.5371 29.2086 30.4874 29.1214 30.4689 29.081C30.4534 29.0469 30.45 29.026 30.45 29H28.45H26.45C26.45 30.2633 27.0042 31.3326 27.8358 32.1642L29.25 30.75ZM28.45 29H30.45C30.45 28.9352 30.4523 28.8262 30.6642 28.6142L29.25 27.2L27.8358 25.7858C26.9811 26.6405 26.45 27.7315 26.45 29H28.45ZM29.25 27.2L30.6642 28.6142C30.7914 28.4871 30.8786 28.4374 30.919 28.4189C30.9531 28.4034 30.974 28.4 31 28.4V26.4V24.4C29.7367 24.4 28.6674 24.9542 27.8358 25.7858L29.25 27.2ZM31 26.4V28.4C31.0648 28.4 31.1738 28.4023 31.3858 28.6142L32.8 27.2L34.2142 25.7858C33.3595 24.9311 32.2685 24.4 31 24.4V26.4ZM32.8 27.2L31.3824 28.6108L41.8324 39.1108L43.25 37.7L44.6676 36.2892L34.2176 25.7892L32.8 27.2ZM43.25 37.7L41.7909 39.0679C42.0009 39.2919 42 39.4031 42 39.45H44H46C46 38.2303 45.4991 37.1748 44.7091 36.3321L43.25 37.7ZM44 39.45L42.0028 39.5551C42.0033 39.565 42.0025 39.5672 42.0029 39.565C42.0032 39.5628 42.0032 39.5653 41.9992 39.5747C41.9914 39.5929 41.9558 39.6658 41.8358 39.7858L43.25 41.2L44.6642 42.6142C45.5156 41.7628 46.066 40.6517 45.9972 39.3449L44 39.45ZM43.25 41.2L41.8358 39.7858C41.6238 39.9977 41.5148 40 41.45 40V42V44C42.7185 44 43.8095 43.4689 44.6642 42.6142L43.25 41.2ZM41.45 42V40C41.424 40 41.4031 39.9966 41.369 39.9811C41.3286 39.9626 41.2414 39.9129 41.1142 39.7858L39.7 41.2L38.2858 42.6142C39.1174 43.4458 40.1867 44 41.45 44V42ZM26.05 42.5V40.5C23.3392 40.5 20.9101 40.054 18.7384 39.1913L18 41.05L17.2616 42.9087C19.9565 43.9793 22.8941 44.5 26.05 44.5V42.5ZM18 41.05L18.7602 39.2001C16.5584 38.2953 14.684 37.0556 13.1142 35.4858L11.7 36.9L10.2858 38.3142C12.2493 40.2777 14.575 41.8047 17.2398 42.8999L18 41.05ZM11.7 36.9L13.1406 35.5127C11.596 33.9087 10.3841 32.0153 9.5087 29.8116L7.65 30.55L5.7913 31.2884C6.8492 33.9514 8.33731 36.2913 10.2594 38.2873L11.7 36.9ZM7.65 30.55L9.51211 29.8203C8.64584 27.6098 8.2 25.1604 8.2 22.45H6.2H4.2C4.2 25.6063 4.72083 28.5569 5.78789 31.2797L7.65 30.55ZM6.2 22.45H8.2C8.2 19.7392 8.64596 17.3101 9.5087 15.1384L7.65 14.4L5.7913 13.6616C4.7207 16.3565 4.2 19.2941 4.2 22.45H6.2ZM7.65 14.4L9.5087 15.1384C10.3829 12.9378 11.5912 11.0666 13.1276 9.50068L11.7 8.1L10.2724 6.69932C8.34208 8.66674 6.85041 10.9956 5.7913 13.6616L7.65 14.4ZM11.7 8.1L13.1274 9.50093C14.6913 7.90749 16.554 6.67648 18.7384 5.8087L18 3.95L17.2616 2.09129C14.5793 3.15685 12.242 4.69251 10.2726 6.69906L11.7 8.1ZM18 3.95L18.7602 5.79988C20.9261 4.90979 23.3475 4.45 26.05 4.45V2.45V0.45C22.8859 0.45 19.9406 0.990205 17.2398 2.10012L18 3.95ZM26.05 2.45V4.45C28.753 4.45 31.1538 4.90993 33.2808 5.79615L34.05 3.95L34.8192 2.10384C32.1462 0.990065 29.2136 0.45 26.05 0.45V2.45ZM34.05 3.95L33.3116 5.8087C35.496 6.67648 37.3587 7.90749 38.9226 9.50093L40.35 8.1L41.7774 6.69906C39.808 4.69251 37.4707 3.15685 34.7884 2.09129L34.05 3.95ZM40.35 8.1L38.9358 9.51421C40.5006 11.079 41.7203 12.9459 42.5913 15.1384L44.45 14.4L46.3087 13.6616C45.2464 10.9875 43.7327 8.65431 41.7642 6.68579L40.35 8.1ZM44.45 14.4L42.5913 15.1384C43.454 17.3101 43.9 19.7392 43.9 22.45H45.9H47.9C47.9 19.2941 47.3793 16.3565 46.3087 13.6616L44.45 14.4ZM45.9 22.45H43.9C43.9 25.1604 43.4542 27.6098 42.5879 29.8203L44.45 30.55L46.3121 31.2797C47.3792 28.5569 47.9 25.6063 47.9 22.45H45.9ZM44.45 30.55L42.5913 29.8116C41.7191 32.0072 40.4957 33.8963 38.9226 35.4991L40.35 36.9L41.7774 38.3009C43.7376 36.3037 45.2476 33.9594 46.3087 31.2884L44.45 30.55ZM40.35 36.9L38.9358 35.4858C37.366 37.0556 35.4916 38.2953 33.2898 39.2001L34.05 41.05L34.8102 42.8999C37.475 41.8047 39.8007 40.2777 41.7642 38.3142L40.35 36.9ZM34.05 41.05L33.3028 39.1948C31.1699 40.0539 28.7613 40.5 26.05 40.5V42.5V44.5C29.2054 44.5 32.1301 43.9794 34.7972 42.9052L34.05 41.05ZM26.05 37.8V39.8C28.457 39.8 30.7105 39.3731 32.7837 38.49L32 36.65L31.2163 34.81C29.6895 35.4603 27.9764 35.8 26.05 35.8V37.8ZM32 36.65L32.7999 38.4831C34.8585 37.5848 36.6593 36.357 38.1816 34.7966L36.75 33.4L35.3184 32.0034C34.174 33.1764 32.8081 34.1152 31.2001 34.8169L32 36.65ZM36.75 33.4L38.1983 34.7793C39.723 33.1783 40.8812 31.3128 41.6727 29.2022L39.8 28.5L37.9273 27.7978C37.3188 29.4205 36.4437 30.8217 35.3017 32.0207L36.75 33.4ZM39.8 28.5L41.6615 29.2313C42.4935 27.1136 42.9 24.8467 42.9 22.45H40.9H38.9C38.9 24.3866 38.5732 26.1531 37.9385 27.7687L39.8 28.5ZM40.9 22.45H42.9C42.9 20.0533 42.4935 17.7864 41.6615 15.6687L39.8 16.4L37.9385 17.1313C38.5732 18.7469 38.9 20.5134 38.9 22.45H40.9ZM39.8 16.4L41.6727 15.6978C40.8797 13.5833 39.717 11.7272 38.1816 10.1534L36.75 11.55L35.3184 12.9466C36.4497 14.1062 37.3203 15.4834 37.9273 17.1022L39.8 16.4ZM36.75 11.55L38.1983 10.1707C36.6687 8.56461 34.853 7.32524 32.7716 6.45484L32 8.3L31.2284 10.1452C32.8137 10.8081 34.1647 11.7354 35.3017 12.9293L36.75 11.55ZM32 8.3L32.7837 6.45995C30.7105 5.57692 28.457 5.15 26.05 5.15V7.15V9.15C27.9764 9.15 29.6895 9.48974 31.2163 10.14L32 8.3ZM26.05 7.15V5.15C23.6425 5.15 21.3774 5.57706 19.2784 6.45484L20.05 8.3L20.8216 10.1452C22.3892 9.4896 24.1242 9.15 26.05 9.15V7.15ZM20.05 8.3L19.2663 6.45995C17.2188 7.33203 15.4252 8.57105 13.9017 10.1707L15.35 11.55L16.7983 12.9293C17.9415 11.7289 19.2812 10.8013 20.8337 10.14L20.05 8.3ZM15.35 11.55L13.9009 10.1716C12.4119 11.7369 11.2602 13.5771 10.4385 15.6687L12.3 16.4L14.1615 17.1313C14.8065 15.4895 15.6881 14.0964 16.7991 12.9284L15.35 11.55ZM12.3 16.4L10.4385 15.6687C9.60653 17.7864 9.2 20.0533 9.2 22.45H11.2H13.2C13.2 20.5134 13.5268 18.7469 14.1615 17.1313L12.3 16.4ZM11.2 22.45H9.2C9.2 24.8467 9.60653 27.1136 10.4385 29.2313L12.3 28.5L14.1615 27.7687C13.5268 26.1531 13.2 24.3866 13.2 22.45H11.2ZM12.3 28.5L10.4385 29.2313C11.2587 31.319 12.4059 33.1686 13.8844 34.7609L15.35 33.4L16.8156 32.0391C15.6941 30.8314 14.808 29.4143 14.1615 27.7687L12.3 28.5ZM15.35 33.4L13.9184 34.7966C15.4346 36.3507 17.2133 37.5779 19.2377 38.4776L20.05 36.65L20.8623 34.8224C19.2867 34.1221 17.9321 33.1826 16.7816 32.0034L15.35 33.4ZM20.05 36.65L19.2784 38.4952C21.3774 39.3729 23.6425 39.8 26.05 39.8V37.8V35.8C24.1242 35.8 22.3892 35.4604 20.8216 34.8048L20.05 36.65Z" fill="url(#paint0_linear_89_42)" mask="url(#path-1-outside-1_89_42)"/>
</g>
<defs>
<filter id="filter0_d_89_42" x="0.200012" y="0.450012" width="51.7" height="52.05" filterUnits="userSpaceOnUse" color-interpolation-filters="sRGB">
<feFlood flood-opacity="0" result="BackgroundImageFix"/>
<feColorMatrix in="SourceAlpha" type="matrix" values="0 0 0 0 0 0 0 0 0 0 0 0 0 0 0 0 0 0 127 0" result="hardAlpha"/>
<feOffset dy="4"/>
<feGaussianBlur stdDeviation="2"/>
<feComposite in2="hardAlpha" operator="out"/>
<feColorMatrix type="matrix" values="0 0 0 0 0 0 0 0 0 0 0 0 0 0 0 0 0 0 0.15 0"/>
<feBlend mode="normal" in2="BackgroundImageFix" result="effect1_dropShadow_89_42"/>
<feBlend mode="normal" in="SourceGraphic" in2="effect1_dropShadow_89_42" result="shape"/>
</filter>
<linearGradient id="paint0_linear_89_42" x1="28" y1="-2" x2="28" y2="48" gradientUnits="userSpaceOnUse">
<stop stop-color="#E95BFF"/>
<stop offset="1" stop-color="#095BA4"/>
</linearGradient>
</defs>
</svg>
