<svg width="30" height="25" viewBox="0 0 30 25" fill="none" xmlns="http://www.w3.org/2000/svg">
<path d="M13.268 0.999999C14.0378 -0.333334 15.9623 -0.333332 16.7321 1L28.8564 22C29.6262 23.3333 28.664 25 27.1244 25H2.87566C1.33606 25 0.373814 23.3333 1.14361 22L13.268 0.999999Z" fill="#D9D9D9" fill-opacity="0.25"/>
<path d="M13.875 4.625C13.875 4.07272 14.3227 3.625 14.875 3.625H15.125C15.6773 3.625 16.125 4.07272 16.125 4.625V16.125C16.125 16.6773 15.6773 17.125 15.125 17.125H14.875C14.3227 17.125 13.875 16.6773 13.875 16.125V4.625Z" fill="white"/>
<path d="M16.125 20.5C16.125 21.1213 15.6213 21.625 15 21.625C14.3787 21.625 13.875 21.1213 13.875 20.5C13.875 19.8787 14.3787 19.375 15 19.375C15.6213 19.375 16.125 19.8787 16.125 20.5Z" fill="white"/>
</svg>
