<svg width="328" height="128" viewBox="0 0 328 128" fill="none" xmlns="http://www.w3.org/2000/svg">
<g filter="url(#filter0_dd_4_16)">
<path d="M4 30C4 13.4315 17.4315 0 34 0H324V98C324 114.569 310.569 128 294 128H4V30Z" fill="url(#paint0_linear_4_16)"/>
</g>
<g filter="url(#filter1_d_4_16)">
<mask id="path-2-outside-1_4_16" maskUnits="userSpaceOnUse" x="17" y="16" width="291" height="89" fill="black">
<rect fill="white" x="17" y="16" width="291" height="89"/>
<path d="M88.4 98.4L67.5 77.5C66.4333 76.4333 65.9 75.2667 65.9 74C65.9 72.6667 66.4333 71.4667 67.5 70.4C68.5667 69.3333 69.7333 68.8 71 68.8C72.3333 68.8 73.5333 69.3333 74.6 70.4L95.5 91.4C96.5 92.4667 97 93.6333 97 94.9C97.0667 96.1667 96.5667 97.3333 95.5 98.4C94.4333 99.4667 93.2333 100 91.9 100C90.6333 100 89.4667 99.4667 88.4 98.4ZM61.1 101C55.2333 101 49.8667 100.033 45 98.1C40.1333 96.1 35.9333 93.3333 32.4 89.8C28.9333 86.2 26.2333 81.9667 24.3 77.1C22.3667 72.1667 21.4 66.7667 21.4 60.9C21.4 55.0333 22.3667 49.6667 24.3 44.8C26.2333 39.9333 28.9333 35.7333 32.4 32.2C35.9333 28.6 40.1333 25.8333 45 23.9C49.8667 21.9 55.2333 20.9 61.1 20.9C66.9667 20.9 72.3 21.9 77.1 23.9C81.9667 25.8333 86.1667 28.6 89.7 32.2C93.2333 35.7333 95.9667 39.9333 97.9 44.8C99.8333 49.6667 100.8 55.0333 100.8 60.9C100.8 66.7667 99.8333 72.1667 97.9 77.1C95.9667 81.9667 93.2333 86.2 89.7 89.8C86.1667 93.3333 81.9667 96.1 77.1 98.1C72.3 100.033 66.9667 101 61.1 101ZM61.1 91.6C65.4333 91.6 69.4 90.8333 73 89.3C76.6667 87.7 79.8333 85.5333 82.5 82.8C85.1667 80 87.2 76.7333 88.6 73C90.0667 69.2667 90.8 65.2333 90.8 60.9C90.8 56.5667 90.0667 52.5333 88.6 48.8C87.2 45.0667 85.1667 41.8333 82.5 39.1C79.8333 36.3 76.6667 34.1333 73 32.6C69.4 31.0667 65.4333 30.3 61.1 30.3C56.7667 30.3 52.7667 31.0667 49.1 32.6C45.5 34.1333 42.3667 36.3 39.7 39.1C37.1 41.8333 35.0667 45.0667 33.6 48.8C32.1333 52.5333 31.4 56.5667 31.4 60.9C31.4 65.2333 32.1333 69.2667 33.6 73C35.0667 76.7333 37.1 80 39.7 82.8C42.3667 85.5333 45.5 87.7 49.1 89.3C52.7667 90.8333 56.7667 91.6 61.1 91.6ZM129.09 100C126.157 100 123.557 99.2 121.29 97.6C119.023 96 117.257 93.8333 115.99 91.1C114.723 88.3 114.09 85.1 114.09 81.5V26.9C114.09 25.4333 114.557 24.2333 115.49 23.3C116.423 22.3667 117.623 21.9 119.09 21.9C120.557 21.9 121.757 22.3667 122.69 23.3C123.623 24.2333 124.09 25.4333 124.09 26.9V81.5C124.09 83.9667 124.557 86 125.49 87.6C126.423 89.2 127.623 90 129.09 90H131.59C132.923 90 133.99 90.4667 134.79 91.4C135.657 92.3333 136.09 93.5333 136.09 95C136.09 96.4667 135.457 97.6667 134.19 98.6C132.923 99.5333 131.29 100 129.29 100H129.09ZM169.07 100.5C164.47 100.5 160.337 99.5333 156.67 97.6C153.07 95.6 150.204 92.7 148.07 88.9C146.004 85.1 144.97 80.4333 144.97 74.9V50.3C144.97 48.8333 145.437 47.6333 146.37 46.7C147.37 45.7 148.604 45.2 150.07 45.2C151.537 45.2 152.737 45.7 153.67 46.7C154.67 47.6333 155.17 48.8333 155.17 50.3V74.9C155.17 78.6333 155.87 81.7333 157.27 84.2C158.67 86.6 160.57 88.4 162.97 89.6C165.37 90.7333 168.07 91.3 171.07 91.3C173.937 91.3 176.47 90.7333 178.67 89.6C180.937 88.4667 182.737 86.9333 184.07 85C185.404 83.0667 186.07 80.9 186.07 78.5H192.37C192.37 82.6333 191.337 86.3667 189.27 89.7C187.27 93.0333 184.504 95.6667 180.97 97.6C177.504 99.5333 173.537 100.5 169.07 100.5ZM191.17 100C189.704 100 188.47 99.5333 187.47 98.6C186.537 97.6 186.07 96.3667 186.07 94.9V50.3C186.07 48.7667 186.537 47.5333 187.47 46.6C188.47 45.6667 189.704 45.2 191.17 45.2C192.704 45.2 193.937 45.6667 194.87 46.6C195.804 47.5333 196.27 48.7667 196.27 50.3V94.9C196.27 96.3667 195.804 97.6 194.87 98.6C193.937 99.5333 192.704 100 191.17 100ZM234.134 100C230.801 100 227.801 99.1667 225.134 97.5C222.468 95.7667 220.368 93.4333 218.834 90.5C217.301 87.5667 216.534 84.2667 216.534 80.6V32.9C216.534 31.4333 217.001 30.2333 217.934 29.3C218.868 28.3667 220.068 27.9 221.534 27.9C223.001 27.9 224.201 28.3667 225.134 29.3C226.068 30.2333 226.534 31.4333 226.534 32.9V80.6C226.534 83.2667 227.268 85.5 228.734 87.3C230.201 89.1 232.001 90 234.134 90H237.534C238.734 90 239.734 90.4667 240.534 91.4C241.401 92.3333 241.834 93.5333 241.834 95C241.834 96.4667 241.268 97.6667 240.134 98.6C239.068 99.5333 237.668 100 235.934 100H234.134ZM211.934 55.9C210.534 55.9 209.401 55.5 208.534 54.7C207.668 53.9 207.234 52.9 207.234 51.7C207.234 50.3667 207.668 49.3 208.534 48.5C209.401 47.7 210.534 47.3 211.934 47.3H235.034C236.434 47.3 237.568 47.7 238.434 48.5C239.301 49.3 239.734 50.3667 239.734 51.7C239.734 52.9 239.301 53.9 238.434 54.7C237.568 55.5 236.434 55.9 235.034 55.9H211.934ZM280.071 100.4C274.538 100.4 269.604 99.2333 265.271 96.9C261.004 94.5 257.638 91.2333 255.171 87.1C252.771 82.9 251.571 78.1 251.571 72.7C251.571 67.2333 252.704 62.4333 254.971 58.3C257.304 54.1 260.504 50.8333 264.571 48.5C268.638 46.1 273.304 44.9 278.571 44.9C283.771 44.9 288.238 46.0667 291.971 48.4C295.704 50.6667 298.538 53.8333 300.471 57.9C302.471 61.9 303.471 66.5333 303.471 71.8C303.471 73.0667 303.038 74.1333 302.171 75C301.304 75.8 300.204 76.2 298.871 76.2H258.571V68.2H298.571L294.471 71C294.404 67.6667 293.738 64.7 292.471 62.1C291.204 59.4333 289.404 57.3333 287.071 55.8C284.738 54.2667 281.904 53.5 278.571 53.5C274.771 53.5 271.504 54.3333 268.771 56C266.104 57.6667 264.071 59.9667 262.671 62.9C261.271 65.7667 260.571 69.0333 260.571 72.7C260.571 76.3667 261.404 79.6333 263.071 82.5C264.738 85.3667 267.038 87.6333 269.971 89.3C272.904 90.9667 276.271 91.8 280.071 91.8C282.138 91.8 284.238 91.4333 286.371 90.7C288.571 89.9 290.338 89 291.671 88C292.671 87.2667 293.738 86.9 294.871 86.9C296.071 86.8333 297.104 87.1667 297.971 87.9C299.104 88.9 299.704 90 299.771 91.2C299.838 92.4 299.304 93.4333 298.171 94.3C295.904 96.1 293.071 97.5667 289.671 98.7C286.338 99.8333 283.138 100.4 280.071 100.4Z"/>
</mask>
<path d="M88.4 98.4L67.5 77.5C66.4333 76.4333 65.9 75.2667 65.9 74C65.9 72.6667 66.4333 71.4667 67.5 70.4C68.5667 69.3333 69.7333 68.8 71 68.8C72.3333 68.8 73.5333 69.3333 74.6 70.4L95.5 91.4C96.5 92.4667 97 93.6333 97 94.9C97.0667 96.1667 96.5667 97.3333 95.5 98.4C94.4333 99.4667 93.2333 100 91.9 100C90.6333 100 89.4667 99.4667 88.4 98.4ZM61.1 101C55.2333 101 49.8667 100.033 45 98.1C40.1333 96.1 35.9333 93.3333 32.4 89.8C28.9333 86.2 26.2333 81.9667 24.3 77.1C22.3667 72.1667 21.4 66.7667 21.4 60.9C21.4 55.0333 22.3667 49.6667 24.3 44.8C26.2333 39.9333 28.9333 35.7333 32.4 32.2C35.9333 28.6 40.1333 25.8333 45 23.9C49.8667 21.9 55.2333 20.9 61.1 20.9C66.9667 20.9 72.3 21.9 77.1 23.9C81.9667 25.8333 86.1667 28.6 89.7 32.2C93.2333 35.7333 95.9667 39.9333 97.9 44.8C99.8333 49.6667 100.8 55.0333 100.8 60.9C100.8 66.7667 99.8333 72.1667 97.9 77.1C95.9667 81.9667 93.2333 86.2 89.7 89.8C86.1667 93.3333 81.9667 96.1 77.1 98.1C72.3 100.033 66.9667 101 61.1 101ZM61.1 91.6C65.4333 91.6 69.4 90.8333 73 89.3C76.6667 87.7 79.8333 85.5333 82.5 82.8C85.1667 80 87.2 76.7333 88.6 73C90.0667 69.2667 90.8 65.2333 90.8 60.9C90.8 56.5667 90.0667 52.5333 88.6 48.8C87.2 45.0667 85.1667 41.8333 82.5 39.1C79.8333 36.3 76.6667 34.1333 73 32.6C69.4 31.0667 65.4333 30.3 61.1 30.3C56.7667 30.3 52.7667 31.0667 49.1 32.6C45.5 34.1333 42.3667 36.3 39.7 39.1C37.1 41.8333 35.0667 45.0667 33.6 48.8C32.1333 52.5333 31.4 56.5667 31.4 60.9C31.4 65.2333 32.1333 69.2667 33.6 73C35.0667 76.7333 37.1 80 39.7 82.8C42.3667 85.5333 45.5 87.7 49.1 89.3C52.7667 90.8333 56.7667 91.6 61.1 91.6ZM129.09 100C126.157 100 123.557 99.2 121.29 97.6C119.023 96 117.257 93.8333 115.99 91.1C114.723 88.3 114.09 85.1 114.09 81.5V26.9C114.09 25.4333 114.557 24.2333 115.49 23.3C116.423 22.3667 117.623 21.9 119.09 21.9C120.557 21.9 121.757 22.3667 122.69 23.3C123.623 24.2333 124.09 25.4333 124.09 26.9V81.5C124.09 83.9667 124.557 86 125.49 87.6C126.423 89.2 127.623 90 129.09 90H131.59C132.923 90 133.99 90.4667 134.79 91.4C135.657 92.3333 136.09 93.5333 136.09 95C136.09 96.4667 135.457 97.6667 134.19 98.6C132.923 99.5333 131.29 100 129.29 100H129.09ZM169.07 100.5C164.47 100.5 160.337 99.5333 156.67 97.6C153.07 95.6 150.204 92.7 148.07 88.9C146.004 85.1 144.97 80.4333 144.97 74.9V50.3C144.97 48.8333 145.437 47.6333 146.37 46.7C147.37 45.7 148.604 45.2 150.07 45.2C151.537 45.2 152.737 45.7 153.67 46.7C154.67 47.6333 155.17 48.8333 155.17 50.3V74.9C155.17 78.6333 155.87 81.7333 157.27 84.2C158.67 86.6 160.57 88.4 162.97 89.6C165.37 90.7333 168.07 91.3 171.07 91.3C173.937 91.3 176.47 90.7333 178.67 89.6C180.937 88.4667 182.737 86.9333 184.07 85C185.404 83.0667 186.07 80.9 186.07 78.5H192.37C192.37 82.6333 191.337 86.3667 189.27 89.7C187.27 93.0333 184.504 95.6667 180.97 97.6C177.504 99.5333 173.537 100.5 169.07 100.5ZM191.17 100C189.704 100 188.47 99.5333 187.47 98.6C186.537 97.6 186.07 96.3667 186.07 94.9V50.3C186.07 48.7667 186.537 47.5333 187.47 46.6C188.47 45.6667 189.704 45.2 191.17 45.2C192.704 45.2 193.937 45.6667 194.87 46.6C195.804 47.5333 196.27 48.7667 196.27 50.3V94.9C196.27 96.3667 195.804 97.6 194.87 98.6C193.937 99.5333 192.704 100 191.17 100ZM234.134 100C230.801 100 227.801 99.1667 225.134 97.5C222.468 95.7667 220.368 93.4333 218.834 90.5C217.301 87.5667 216.534 84.2667 216.534 80.6V32.9C216.534 31.4333 217.001 30.2333 217.934 29.3C218.868 28.3667 220.068 27.9 221.534 27.9C223.001 27.9 224.201 28.3667 225.134 29.3C226.068 30.2333 226.534 31.4333 226.534 32.9V80.6C226.534 83.2667 227.268 85.5 228.734 87.3C230.201 89.1 232.001 90 234.134 90H237.534C238.734 90 239.734 90.4667 240.534 91.4C241.401 92.3333 241.834 93.5333 241.834 95C241.834 96.4667 241.268 97.6667 240.134 98.6C239.068 99.5333 237.668 100 235.934 100H234.134ZM211.934 55.9C210.534 55.9 209.401 55.5 208.534 54.7C207.668 53.9 207.234 52.9 207.234 51.7C207.234 50.3667 207.668 49.3 208.534 48.5C209.401 47.7 210.534 47.3 211.934 47.3H235.034C236.434 47.3 237.568 47.7 238.434 48.5C239.301 49.3 239.734 50.3667 239.734 51.7C239.734 52.9 239.301 53.9 238.434 54.7C237.568 55.5 236.434 55.9 235.034 55.9H211.934ZM280.071 100.4C274.538 100.4 269.604 99.2333 265.271 96.9C261.004 94.5 257.638 91.2333 255.171 87.1C252.771 82.9 251.571 78.1 251.571 72.7C251.571 67.2333 252.704 62.4333 254.971 58.3C257.304 54.1 260.504 50.8333 264.571 48.5C268.638 46.1 273.304 44.9 278.571 44.9C283.771 44.9 288.238 46.0667 291.971 48.4C295.704 50.6667 298.538 53.8333 300.471 57.9C302.471 61.9 303.471 66.5333 303.471 71.8C303.471 73.0667 303.038 74.1333 302.171 75C301.304 75.8 300.204 76.2 298.871 76.2H258.571V68.2H298.571L294.471 71C294.404 67.6667 293.738 64.7 292.471 62.1C291.204 59.4333 289.404 57.3333 287.071 55.8C284.738 54.2667 281.904 53.5 278.571 53.5C274.771 53.5 271.504 54.3333 268.771 56C266.104 57.6667 264.071 59.9667 262.671 62.9C261.271 65.7667 260.571 69.0333 260.571 72.7C260.571 76.3667 261.404 79.6333 263.071 82.5C264.738 85.3667 267.038 87.6333 269.971 89.3C272.904 90.9667 276.271 91.8 280.071 91.8C282.138 91.8 284.238 91.4333 286.371 90.7C288.571 89.9 290.338 89 291.671 88C292.671 87.2667 293.738 86.9 294.871 86.9C296.071 86.8333 297.104 87.1667 297.971 87.9C299.104 88.9 299.704 90 299.771 91.2C299.838 92.4 299.304 93.4333 298.171 94.3C295.904 96.1 293.071 97.5667 289.671 98.7C286.338 99.8333 283.138 100.4 280.071 100.4Z" fill="white"/>
<path d="M88.4 98.4L85.5716 101.228V101.228L88.4 98.4ZM67.5 77.5L70.3284 74.6716L70.3284 74.6716L67.5 77.5ZM67.5 70.4L70.3284 73.2284L70.3284 73.2284L67.5 70.4ZM74.6 70.4L77.4352 67.5783L77.4284 67.5716L74.6 70.4ZM95.5 91.4L98.4182 88.6642C98.3909 88.6352 98.3633 88.6066 98.3352 88.5783L95.5 91.4ZM97 94.9H93C93 94.9701 93.0018 95.0402 93.0055 95.1102L97 94.9ZM95.5 98.4L98.3284 101.228L98.3284 101.228L95.5 98.4ZM45 98.1L43.4796 101.8C43.4941 101.806 43.5086 101.812 43.5232 101.817L45 98.1ZM32.4 89.8L29.5187 92.5746C29.5362 92.5927 29.5538 92.6106 29.5716 92.6284L32.4 89.8ZM24.3 77.1L20.5758 78.5595C20.578 78.5653 20.5803 78.571 20.5826 78.5768L24.3 77.1ZM24.3 44.8L20.5826 43.3232L20.5826 43.3232L24.3 44.8ZM32.4 32.2L29.5453 29.3981L29.5448 29.3986L32.4 32.2ZM45 23.9L46.4768 27.6174C46.4914 27.6116 46.5059 27.6057 46.5204 27.5998L45 23.9ZM77.1 23.9L75.5615 27.5923C75.582 27.6008 75.6026 27.6092 75.6232 27.6174L77.1 23.9ZM89.7 32.2L86.8453 35.0019C86.854 35.0108 86.8628 35.0196 86.8716 35.0284L89.7 32.2ZM97.9 44.8L101.617 43.3232V43.3232L97.9 44.8ZM97.9 77.1L101.617 78.5768C101.62 78.571 101.622 78.5653 101.624 78.5595L97.9 77.1ZM89.7 89.8L92.5284 92.6284C92.5372 92.6196 92.546 92.6108 92.5547 92.6019L89.7 89.8ZM77.1 98.1L78.5944 101.81C78.6031 101.807 78.6118 101.803 78.6205 101.8L77.1 98.1ZM73 89.3L74.5675 92.9801C74.5783 92.9755 74.589 92.9708 74.5998 92.9662L73 89.3ZM82.5 82.8L85.3631 85.5933C85.3743 85.5818 85.3855 85.5702 85.3966 85.5586L82.5 82.8ZM88.6 73L84.877 71.5374C84.8694 71.5567 84.862 71.5761 84.8547 71.5955L88.6 73ZM88.6 48.8L84.8547 50.2045C84.862 50.2239 84.8694 50.2433 84.877 50.2626L88.6 48.8ZM82.5 39.1L79.6034 41.8586C79.6145 41.8702 79.6257 41.8818 79.6369 41.8933L82.5 39.1ZM73 32.6L71.4326 36.2801C71.4406 36.2835 71.4487 36.2869 71.4568 36.2903L73 32.6ZM49.1 32.6L47.5568 28.9097C47.5487 28.9131 47.5406 28.9165 47.5326 28.9199L49.1 32.6ZM39.7 39.1L36.8034 36.3414L36.8018 36.3431L39.7 39.1ZM39.7 82.8L36.7688 85.5218C36.7912 85.5459 36.8139 85.5697 36.8369 85.5933L39.7 82.8ZM49.1 89.3L47.4754 92.9552C47.5024 92.9672 47.5295 92.9789 47.5568 92.9903L49.1 89.3ZM88.4 98.4L91.2284 95.5716L70.3284 74.6716L67.5 77.5L64.6716 80.3284L85.5716 101.228L88.4 98.4ZM67.5 77.5L70.3284 74.6716C70.0741 74.4173 69.9748 74.2428 69.9379 74.162C69.9067 74.0937 69.9 74.0519 69.9 74H65.9H61.9C61.9 76.5267 63.0084 78.6653 64.6716 80.3284L67.5 77.5ZM65.9 74H69.9C69.9 73.8703 69.9045 73.6523 70.3284 73.2284L67.5 70.4L64.6716 67.5716C62.9622 69.281 61.9 71.463 61.9 74H65.9ZM67.5 70.4L70.3284 73.2284C70.5827 72.9741 70.7572 72.8748 70.838 72.8379C70.9063 72.8067 70.9481 72.8 71 72.8V68.8V64.8C68.4733 64.8 66.3347 65.9084 64.6716 67.5716L67.5 70.4ZM71 68.8V72.8C71.1297 72.8 71.3477 72.8045 71.7716 73.2284L74.6 70.4L77.4284 67.5716C75.719 65.8622 73.537 64.8 71 64.8V68.8ZM74.6 70.4L71.7648 73.2217L92.6648 94.2217L95.5 91.4L98.3352 88.5783L77.4352 67.5783L74.6 70.4ZM95.5 91.4L92.5819 94.1358C93.0018 94.5837 93 94.8061 93 94.9H97H101C101 92.4605 99.9982 90.3496 98.4182 88.6642L95.5 91.4ZM97 94.9L93.0055 95.1102C93.0066 95.13 93.0049 95.1343 93.0057 95.13C93.0065 95.1256 93.0065 95.1306 92.9984 95.1493C92.9828 95.1857 92.9115 95.3316 92.6716 95.5716L95.5 98.4L98.3284 101.228C100.031 99.5256 101.132 97.3034 100.994 94.6898L97 94.9ZM95.5 98.4L92.6716 95.5716C92.2477 95.9955 92.0297 96 91.9 96V100V104C94.437 104 96.619 102.938 98.3284 101.228L95.5 98.4ZM91.9 100V96C91.8481 96 91.8063 95.9933 91.738 95.9621C91.6572 95.9252 91.4827 95.8259 91.2284 95.5716L88.4 98.4L85.5716 101.228C87.2347 102.892 89.3733 104 91.9 104V100ZM61.1 101V97C55.6784 97 50.8202 96.1081 46.4768 94.3826L45 98.1L43.5232 101.817C48.9131 103.959 54.7883 105 61.1 105V101ZM45 98.1L46.5205 94.4002C42.1168 92.5905 38.3681 90.1112 35.2284 86.9716L32.4 89.8L29.5716 92.6284C33.4986 96.5555 38.1499 99.6095 43.4796 101.8L45 98.1ZM32.4 89.8L35.2813 87.0254C32.1921 83.8174 29.7683 80.0306 28.0174 75.6232L24.3 77.1L20.5826 78.5768C22.6984 83.9028 25.6746 88.5826 29.5187 92.5746L32.4 89.8ZM24.3 77.1L28.0242 75.6405C26.2917 71.2195 25.4 66.3207 25.4 60.9H21.4H17.4C17.4 67.2126 18.4417 73.1138 20.5758 78.5595L24.3 77.1ZM21.4 60.9H25.4C25.4 55.4784 26.2919 50.6202 28.0174 46.2768L24.3 44.8L20.5826 43.3232C18.4414 48.7131 17.4 54.5883 17.4 60.9H21.4ZM24.3 44.8L28.0174 46.2768C29.7659 41.8755 32.1825 38.1332 35.2552 35.0014L32.4 32.2L29.5448 29.3986C25.6842 33.3335 22.7008 37.9912 20.5826 43.3232L24.3 44.8ZM32.4 32.2L35.2547 35.0019C38.3826 31.815 42.108 29.353 46.4768 27.6174L45 23.9L43.5232 20.1826C38.1587 22.3137 33.4841 25.385 29.5453 29.3981L32.4 32.2ZM45 23.9L46.5204 27.5998C50.8522 25.8196 55.6949 24.9 61.1 24.9V20.9V16.9C54.7717 16.9 48.8811 17.9804 43.4796 20.2002L45 23.9ZM61.1 20.9V24.9C66.5061 24.9 71.3077 25.8199 75.5615 27.5923L77.1 23.9L78.6385 20.2077C73.2923 17.9801 67.4273 16.9 61.1 16.9V20.9ZM77.1 23.9L75.6232 27.6174C79.992 29.3529 83.7174 31.815 86.8453 35.0019L89.7 32.2L92.5547 29.3981C88.6159 25.385 83.9413 22.3137 78.5768 20.1826L77.1 23.9ZM89.7 32.2L86.8716 35.0284C90.0012 38.1581 92.4406 41.8917 94.1826 46.2768L97.9 44.8L101.617 43.3232C99.4927 37.9749 96.4655 33.3086 92.5284 29.3716L89.7 32.2ZM97.9 44.8L94.1826 46.2768C95.9081 50.6202 96.8 55.4784 96.8 60.9H100.8H104.8C104.8 54.5883 103.759 48.7131 101.617 43.3232L97.9 44.8ZM100.8 60.9H96.8C96.8 66.3207 95.9083 71.2195 94.1758 75.6405L97.9 77.1L101.624 78.5595C103.758 73.1138 104.8 67.2126 104.8 60.9H100.8ZM97.9 77.1L94.1826 75.6232C92.4381 80.0144 89.9915 83.7925 86.8453 86.9981L89.7 89.8L92.5547 92.6019C96.4752 88.6075 99.4952 83.9189 101.617 78.5768L97.9 77.1ZM89.7 89.8L86.8716 86.9716C83.7319 90.1112 79.9832 92.5905 75.5796 94.4002L77.1 98.1L78.6205 101.8C83.9501 99.6095 88.6014 96.5555 92.5284 92.6284L89.7 89.8ZM77.1 98.1L75.6056 94.3897C71.3399 96.1078 66.5226 97 61.1 97V101V105C67.4107 105 73.2601 103.959 78.5944 101.81L77.1 98.1ZM61.1 91.6V95.6C65.914 95.6 70.4211 94.7461 74.5675 92.9801L73 89.3L71.4326 85.6199C68.3789 86.9205 64.9527 87.6 61.1 87.6V91.6ZM73 89.3L74.5998 92.9662C78.7171 91.1695 82.3186 88.7139 85.3631 85.5933L82.5 82.8L79.6369 80.0067C77.3481 82.3527 74.6163 84.2305 71.4002 85.6338L73 89.3ZM82.5 82.8L85.3966 85.5586C88.446 82.3567 90.7624 78.6256 92.3453 74.4045L88.6 73L84.8547 71.5955C83.6376 74.841 81.8873 77.6433 79.6034 80.0414L82.5 82.8ZM88.6 73L92.323 74.4626C93.9869 70.2271 94.8 65.6934 94.8 60.9H90.8H86.8C86.8 64.7732 86.1464 68.3062 84.877 71.5374L88.6 73ZM90.8 60.9H94.8C94.8 56.1066 93.9869 51.5729 92.323 47.3374L88.6 48.8L84.877 50.2626C86.1464 53.4938 86.8 57.0268 86.8 60.9H90.8ZM88.6 48.8L92.3453 47.3955C90.7594 43.1665 88.434 39.4543 85.3631 36.3067L82.5 39.1L79.6369 41.8933C81.8993 44.2123 83.6406 46.9668 84.8547 50.2045L88.6 48.8ZM82.5 39.1L85.3966 36.3414C82.3374 33.1292 78.706 30.6505 74.5432 28.9097L73 32.6L71.4568 36.2903C74.6273 37.6162 77.3293 39.4708 79.6034 41.8586L82.5 39.1ZM73 32.6L74.5675 28.9199C70.4211 27.1538 65.914 26.3 61.1 26.3V30.3V34.3C64.9527 34.3 68.3789 34.9795 71.4326 36.2801L73 32.6ZM61.1 30.3V26.3C56.285 26.3 51.7548 27.1541 47.5568 28.9097L49.1 32.6L50.6432 36.2903C53.7785 34.9792 57.2483 34.3 61.1 34.3V30.3ZM49.1 32.6L47.5326 28.9199C43.4376 30.6641 39.8504 33.1421 36.8034 36.3414L39.7 39.1L42.5966 41.8586C44.883 39.4579 47.5624 37.6026 50.6674 36.2801L49.1 32.6ZM39.7 39.1L36.8018 36.3431C33.8238 39.4739 31.5204 43.1542 29.877 47.3374L33.6 48.8L37.323 50.2626C38.613 46.9791 40.3762 44.1928 42.5982 41.8569L39.7 39.1ZM33.6 48.8L29.877 47.3374C28.2131 51.5729 27.4 56.1066 27.4 60.9H31.4H35.4C35.4 57.0268 36.0536 53.4938 37.323 50.2626L33.6 48.8ZM31.4 60.9H27.4C27.4 65.6934 28.2131 70.2271 29.877 74.4626L33.6 73L37.323 71.5374C36.0536 68.3062 35.4 64.7732 35.4 60.9H31.4ZM33.6 73L29.877 74.4626C31.5173 78.638 33.8117 82.3372 36.7688 85.5218L39.7 82.8L42.6312 80.0782C40.3883 77.6628 38.616 74.8287 37.323 71.5374L33.6 73ZM39.7 82.8L36.8369 85.5933C39.8692 88.7015 43.4266 91.1558 47.4754 92.9552L49.1 89.3L50.7246 85.6448C47.5734 84.2442 44.8641 82.3652 42.5631 80.0067L39.7 82.8ZM49.1 89.3L47.5568 92.9903C51.7548 94.7459 56.285 95.6 61.1 95.6V91.6V87.6C57.2483 87.6 53.7785 86.9208 50.6432 85.6097L49.1 89.3ZM121.29 97.6L118.983 100.868L121.29 97.6ZM115.99 91.1L112.345 92.7487C112.35 92.7598 112.355 92.7708 112.361 92.7818L115.99 91.1ZM115.49 23.3L118.318 26.1284L115.49 23.3ZM122.69 23.3L119.861 26.1284L122.69 23.3ZM125.49 87.6L128.945 85.5845V85.5845L125.49 87.6ZM134.79 91.4L131.753 94.0032C131.787 94.0434 131.823 94.083 131.859 94.1218L134.79 91.4ZM134.19 98.6L136.563 101.82H136.563L134.19 98.6ZM129.09 100V96C126.932 96 125.149 95.4277 123.597 94.3321L121.29 97.6L118.983 100.868C121.964 102.972 125.381 104 129.09 104V100ZM121.29 97.6L123.597 94.3321C121.951 93.1702 120.617 91.5724 119.619 89.4182L115.99 91.1L112.361 92.7818C113.896 96.0943 116.096 98.8298 118.983 100.868L121.29 97.6ZM115.99 91.1L119.634 89.4513C118.639 87.2506 118.09 84.628 118.09 81.5H114.09H110.09C110.09 85.572 110.808 89.3493 112.345 92.7487L115.99 91.1ZM114.09 81.5H118.09V26.9H114.09H110.09V81.5H114.09ZM114.09 26.9H118.09C118.09 26.365 118.222 26.2249 118.318 26.1284L115.49 23.3L112.661 20.4716C110.891 22.2417 110.09 24.5017 110.09 26.9H114.09ZM115.49 23.3L118.318 26.1284C118.415 26.0319 118.555 25.9 119.09 25.9V21.9V17.9C116.692 17.9 114.432 18.7014 112.661 20.4716L115.49 23.3ZM119.09 21.9V25.9C119.625 25.9 119.765 26.0319 119.861 26.1284L122.69 23.3L125.518 20.4716C123.748 18.7014 121.488 17.9 119.09 17.9V21.9ZM122.69 23.3L119.861 26.1284C119.958 26.2249 120.09 26.365 120.09 26.9H124.09H128.09C128.09 24.5017 127.288 22.2417 125.518 20.4716L122.69 23.3ZM124.09 26.9H120.09V81.5H124.09H128.09V26.9H124.09ZM124.09 81.5H120.09C120.09 84.4475 120.645 87.2334 122.035 89.6155L125.49 87.6L128.945 85.5845C128.468 84.7666 128.09 83.4858 128.09 81.5H124.09ZM125.49 87.6L122.035 89.6155C123.467 92.07 125.815 94 129.09 94V90V86C129.089 86 129.099 86 129.118 86.0027C129.137 86.0055 129.162 86.0105 129.189 86.0187C129.249 86.0366 129.291 86.0601 129.309 86.0718C129.338 86.0915 129.189 86.0031 128.945 85.5845L125.49 87.6ZM129.09 90V94H131.59V90V86H129.09V90ZM131.59 90V94C131.69 94 131.749 94.0087 131.776 94.014C131.802 94.019 131.802 94.0216 131.787 94.0146C131.77 94.0074 131.753 93.9972 131.74 93.9875C131.728 93.9783 131.733 93.9796 131.753 94.0032L134.79 91.4L137.827 88.7968C136.197 86.8954 133.979 86 131.59 86V90ZM134.79 91.4L131.859 94.1218C131.934 94.2033 132.09 94.379 132.09 95H136.09H140.09C140.09 92.6877 139.379 90.4634 137.721 88.6782L134.79 91.4ZM136.09 95H132.09C132.09 95.0771 132.082 95.1156 132.079 95.1257C132.078 95.1315 132.077 95.1335 132.077 95.133C132.078 95.1324 132.078 95.1321 132.077 95.133C132.077 95.1338 132.074 95.1384 132.068 95.1469C132.062 95.1555 132.052 95.1698 132.034 95.1897C131.999 95.2291 131.932 95.2948 131.817 95.3798L134.19 98.6L136.563 101.82C138.766 100.197 140.09 97.8418 140.09 95H136.09ZM134.19 98.6L131.817 95.3798C131.404 95.6838 130.669 96 129.29 96V100V104C131.911 104 134.442 103.383 136.563 101.82L134.19 98.6ZM129.29 100V96H129.09V100V104H129.29V100ZM156.67 97.6L154.728 101.097C154.753 101.111 154.779 101.125 154.805 101.138L156.67 97.6ZM148.07 88.9L144.556 90.8111C144.565 90.8268 144.574 90.8425 144.582 90.8581L148.07 88.9ZM146.37 46.7L143.542 43.8716L146.37 46.7ZM153.67 46.7L150.746 49.4293C150.809 49.4965 150.874 49.5615 150.941 49.6242L153.67 46.7ZM157.27 84.2L153.792 86.1744C153.799 86.1882 153.807 86.2018 153.815 86.2155L157.27 84.2ZM162.97 89.6L161.181 93.1777C161.208 93.1911 161.235 93.2042 161.262 93.217L162.97 89.6ZM178.67 89.6L176.881 86.0223C176.867 86.0295 176.853 86.0367 176.838 86.0441L178.67 89.6ZM184.07 85L187.363 87.2709L187.363 87.2709L184.07 85ZM186.07 78.5V74.5C183.861 74.5 182.07 76.2909 182.07 78.5H186.07ZM192.37 78.5H196.37C196.37 76.2909 194.579 74.5 192.37 74.5V78.5ZM189.27 89.7L185.871 87.5922C185.86 87.6088 185.85 87.6254 185.84 87.642L189.27 89.7ZM180.97 97.6L179.05 94.091C179.041 94.0961 179.031 94.1013 179.022 94.1065L180.97 97.6ZM187.47 98.6L184.546 101.329C184.609 101.396 184.674 101.462 184.741 101.524L187.47 98.6ZM187.47 46.6L184.741 43.6758C184.707 43.7071 184.674 43.7391 184.642 43.7716L187.47 46.6ZM194.87 98.6L197.699 101.428C197.731 101.396 197.763 101.363 197.795 101.329L194.87 98.6ZM169.07 100.5V96.5C165.048 96.5 161.567 95.6597 158.536 94.0617L156.67 97.6L154.805 101.138C159.107 103.407 163.893 104.5 169.07 104.5V100.5ZM156.67 97.6L158.613 94.1034C155.699 92.4844 153.351 90.1351 151.558 86.9419L148.07 88.9L144.582 90.8581C147.056 95.2649 150.442 98.7156 154.728 101.097L156.67 97.6ZM148.07 88.9L151.584 86.9889C149.913 83.9167 148.97 79.9476 148.97 74.9H144.97H140.97C140.97 80.9191 142.094 86.2833 144.556 90.8111L148.07 88.9ZM144.97 74.9H148.97V50.3H144.97H140.97V74.9H144.97ZM144.97 50.3H148.97C148.97 49.765 149.102 49.6249 149.199 49.5284L146.37 46.7L143.542 43.8716C141.772 45.6417 140.97 47.9017 140.97 50.3H144.97ZM146.37 46.7L149.199 49.5284C149.418 49.3091 149.621 49.2 150.07 49.2V45.2V41.2C147.587 41.2 145.323 42.0909 143.542 43.8716L146.37 46.7ZM150.07 45.2V49.2C150.518 49.2 150.628 49.3031 150.746 49.4293L153.67 46.7L156.595 43.9707C154.846 42.0969 152.556 41.2 150.07 41.2V45.2ZM153.67 46.7L150.941 49.6242C151.067 49.742 151.17 49.8525 151.17 50.3H155.17H159.17C159.17 47.8142 158.273 45.5246 156.4 43.7758L153.67 46.7ZM155.17 50.3H151.17V74.9H155.17H159.17V50.3H155.17ZM155.17 74.9H151.17C151.17 79.1132 151.959 82.9448 153.792 86.1744L157.27 84.2L160.749 82.2256C159.782 80.5219 159.17 78.1535 159.17 74.9H155.17ZM157.27 84.2L153.815 86.2155C155.592 89.2619 158.06 91.6172 161.181 93.1777L162.97 89.6L164.759 86.0223C163.08 85.1828 161.748 83.9381 160.725 82.1845L157.27 84.2ZM162.97 89.6L161.262 93.217C164.262 94.6336 167.557 95.3 171.07 95.3V91.3V87.3C168.584 87.3 166.479 86.8331 164.678 85.983L162.97 89.6ZM171.07 91.3V95.3C174.473 95.3 177.652 94.6241 180.502 93.1559L178.67 89.6L176.838 86.0441C175.289 86.8425 173.401 87.3 171.07 87.3V91.3ZM178.67 89.6L180.459 93.1777C183.28 91.7672 185.617 89.8032 187.363 87.2709L184.07 85L180.777 82.7291C179.857 84.0634 178.594 85.1662 176.881 86.0223L178.67 89.6ZM184.07 85L187.363 87.2709C189.168 84.6544 190.07 81.6922 190.07 78.5H186.07H182.07C182.07 80.1078 181.64 81.4789 180.777 82.7291L184.07 85ZM186.07 78.5V82.5H192.37V78.5V74.5H186.07V78.5ZM192.37 78.5H188.37C188.37 81.9305 187.523 84.9267 185.871 87.5922L189.27 89.7L192.67 91.8078C195.151 87.8067 196.37 83.3361 196.37 78.5H192.37ZM189.27 89.7L185.84 87.642C184.219 90.3436 181.984 92.4858 179.05 94.091L180.97 97.6L182.89 101.109C187.023 98.8476 190.321 95.7231 192.7 91.758L189.27 89.7ZM180.97 97.6L179.022 94.1065C176.223 95.6678 172.942 96.5 169.07 96.5V100.5V104.5C174.132 104.5 178.785 103.399 182.919 101.093L180.97 97.6ZM191.17 100V96C190.637 96 190.402 95.865 190.2 95.6758L187.47 98.6L184.741 101.524C186.538 103.202 188.771 104 191.17 104V100ZM187.47 98.6L190.395 95.8707C190.205 95.668 190.07 95.4336 190.07 94.9H186.07H182.07C182.07 97.2997 182.869 99.532 184.546 101.329L187.47 98.6ZM186.07 94.9H190.07V50.3H186.07H182.07V94.9H186.07ZM186.07 50.3H190.07C190.07 49.6421 190.237 49.4899 190.299 49.4284L187.47 46.6L184.642 43.7716C182.837 45.5767 182.07 47.8912 182.07 50.3H186.07ZM187.47 46.6L190.2 49.5242C190.402 49.335 190.637 49.2 191.17 49.2V45.2V41.2C188.771 41.2 186.538 41.9984 184.741 43.6758L187.47 46.6ZM191.17 45.2V49.2C191.828 49.2 191.98 49.3669 192.042 49.4284L194.87 46.6L197.699 43.7716C195.894 41.9664 193.579 41.2 191.17 41.2V45.2ZM194.87 46.6L192.042 49.4284C192.103 49.4899 192.27 49.6421 192.27 50.3H196.27H200.27C200.27 47.8912 199.504 45.5767 197.699 43.7716L194.87 46.6ZM196.27 50.3H192.27V94.9H196.27H200.27V50.3H196.27ZM196.27 94.9H192.27C192.27 95.4336 192.135 95.668 191.946 95.8707L194.87 98.6L197.795 101.329C199.472 99.532 200.27 97.2997 200.27 94.9H196.27ZM194.87 98.6L192.042 95.7716C191.98 95.8331 191.828 96 191.17 96V100V104C193.579 104 195.894 103.234 197.699 101.428L194.87 98.6ZM225.134 97.5L222.954 100.854C222.974 100.867 222.994 100.879 223.014 100.892L225.134 97.5ZM218.834 90.5L215.289 92.353L218.834 90.5ZM217.934 29.3L215.106 26.4716L217.934 29.3ZM225.134 29.3L227.963 26.4716V26.4716L225.134 29.3ZM228.734 87.3L231.835 84.7733L228.734 87.3ZM240.534 91.4L237.497 94.0032C237.532 94.0434 237.567 94.083 237.603 94.1218L240.534 91.4ZM240.134 98.6L237.592 95.5123C237.561 95.5376 237.53 95.5634 237.5 95.5897L240.134 98.6ZM208.534 54.7L205.821 57.6392V57.6392L208.534 54.7ZM208.534 48.5L205.821 45.5608V45.5608L208.534 48.5ZM238.434 48.5L241.147 45.5608V45.5608L238.434 48.5ZM238.434 54.7L241.147 57.6392V57.6392L238.434 54.7ZM234.134 100V96C231.504 96 229.247 95.3531 227.254 94.108L225.134 97.5L223.014 100.892C226.355 102.98 230.098 104 234.134 104V100ZM225.134 97.5L227.314 94.1462C225.248 92.8031 223.608 90.9969 222.379 88.647L218.834 90.5L215.289 92.353C217.128 95.8698 219.687 98.7302 222.954 100.854L225.134 97.5ZM218.834 90.5L222.379 88.647C221.176 86.3451 220.534 83.6921 220.534 80.6H216.534H212.534C212.534 84.8413 213.426 88.7882 215.289 92.353L218.834 90.5ZM216.534 80.6H220.534V32.9H216.534H212.534V80.6H216.534ZM216.534 32.9H220.534C220.534 32.365 220.666 32.2249 220.763 32.1284L217.934 29.3L215.106 26.4716C213.336 28.2417 212.534 30.5017 212.534 32.9H216.534ZM217.934 29.3L220.763 32.1284C220.859 32.0319 220.999 31.9 221.534 31.9V27.9V23.9C219.136 23.9 216.876 24.7014 215.106 26.4716L217.934 29.3ZM221.534 27.9V31.9C222.069 31.9 222.209 32.0319 222.306 32.1284L225.134 29.3L227.963 26.4716C226.193 24.7014 223.933 23.9 221.534 23.9V27.9ZM225.134 29.3L222.306 32.1284C222.402 32.2249 222.534 32.365 222.534 32.9H226.534H230.534C230.534 30.5017 229.733 28.2417 227.963 26.4716L225.134 29.3ZM226.534 32.9H222.534V80.6H226.534H230.534V32.9H226.534ZM226.534 80.6H222.534C222.534 84.0433 223.5 87.2088 225.633 89.8267L228.734 87.3L231.835 84.7733C231.035 83.7912 230.534 82.4901 230.534 80.6H226.534ZM228.734 87.3L225.633 89.8267C227.783 92.465 230.682 94 234.134 94V90V86C233.32 86 232.619 85.735 231.835 84.7733L228.734 87.3ZM234.134 90V94H237.534V90V86H234.134V90ZM237.534 90V94C237.574 94 237.582 94.0037 237.567 94.0004C237.56 93.9989 237.549 93.9962 237.535 93.9916C237.521 93.9871 237.507 93.9814 237.493 93.9747C237.479 93.9681 237.466 93.9614 237.457 93.9556C237.447 93.9497 237.442 93.9457 237.441 93.9449C237.439 93.9429 237.459 93.9579 237.497 94.0032L240.534 91.4L243.571 88.7968C242.033 87.0018 239.934 86 237.534 86V90ZM240.534 91.4L237.603 94.1218C237.679 94.2033 237.834 94.379 237.834 95H241.834H245.834C245.834 92.6877 245.123 90.4634 243.466 88.6782L240.534 91.4ZM241.834 95H237.834C237.834 95.2055 237.798 95.28 237.792 95.292C237.787 95.304 237.752 95.3804 237.592 95.5123L240.134 98.6L242.677 101.688C244.732 99.9955 245.834 97.6634 245.834 95H241.834ZM240.134 98.6L237.5 95.5897C237.316 95.7508 236.924 96 235.934 96V100V104C238.411 104 240.819 103.316 242.768 101.61L240.134 98.6ZM235.934 100V96H234.134V100V104H235.934V100ZM211.934 55.9V51.9C211.615 51.9 211.441 51.8545 211.366 51.828C211.301 51.8054 211.274 51.7851 211.247 51.7608L208.534 54.7L205.821 57.6392C207.561 59.2455 209.728 59.9 211.934 59.9V55.9ZM208.534 54.7L211.247 51.7608C211.215 51.7305 211.205 51.7163 211.208 51.7205C211.21 51.7223 211.213 51.7269 211.217 51.7344C211.221 51.7418 211.226 51.7504 211.23 51.7596C211.238 51.7796 211.241 51.7918 211.24 51.7895C211.24 51.7862 211.234 51.7585 211.234 51.7H207.234H203.234C203.234 53.9943 204.118 56.0671 205.821 57.6392L208.534 54.7ZM207.234 51.7H211.234C211.234 51.4688 211.271 51.3913 211.265 51.4055C211.263 51.4105 211.257 51.4227 211.248 51.436C211.239 51.449 211.236 51.45 211.247 51.4392L208.534 48.5L205.821 45.5608C204.023 47.2206 203.234 49.4111 203.234 51.7H207.234ZM208.534 48.5L211.247 51.4392C211.274 51.4149 211.301 51.3946 211.366 51.372C211.441 51.3455 211.615 51.3 211.934 51.3V47.3V43.3C209.728 43.3 207.561 43.9545 205.821 45.5608L208.534 48.5ZM211.934 47.3V51.3H235.034V47.3V43.3H211.934V47.3ZM235.034 47.3V51.3C235.354 51.3 235.528 51.3455 235.603 51.372C235.667 51.3946 235.695 51.4149 235.721 51.4392L238.434 48.5L241.147 45.5608C239.407 43.9545 237.24 43.3 235.034 43.3V47.3ZM238.434 48.5L235.721 51.4392C235.733 51.45 235.73 51.449 235.721 51.436C235.711 51.4227 235.706 51.4105 235.704 51.4055C235.698 51.3913 235.734 51.4688 235.734 51.7H239.734H243.734C243.734 49.4111 242.946 47.2206 241.147 45.5608L238.434 48.5ZM239.734 51.7H235.734C235.734 51.7585 235.729 51.7862 235.729 51.7895C235.728 51.7918 235.73 51.7796 235.739 51.7596C235.743 51.7504 235.747 51.7418 235.752 51.7343C235.756 51.7269 235.759 51.7223 235.76 51.7205C235.763 51.7163 235.754 51.7305 235.721 51.7608L238.434 54.7L241.147 57.6392C242.851 56.0671 243.734 53.9943 243.734 51.7H239.734ZM238.434 54.7L235.721 51.7608C235.695 51.7851 235.667 51.8054 235.603 51.828C235.528 51.8545 235.354 51.9 235.034 51.9V55.9V59.9C237.24 59.9 239.407 59.2455 241.147 57.6392L238.434 54.7ZM235.034 55.9V51.9H211.934V55.9V59.9H235.034V55.9ZM265.271 96.9L263.31 100.386C263.331 100.398 263.353 100.41 263.375 100.422L265.271 96.9ZM255.171 87.1L251.698 89.0846C251.711 89.1064 251.723 89.1282 251.736 89.1498L255.171 87.1ZM254.971 58.3L251.474 56.3574C251.471 56.3638 251.467 56.3702 251.464 56.3767L254.971 58.3ZM264.571 48.5L266.562 51.9695C266.576 51.9613 266.59 51.9531 266.604 51.9448L264.571 48.5ZM291.971 48.4L289.851 51.792C289.866 51.8011 289.88 51.8102 289.895 51.8191L291.971 48.4ZM300.471 57.9L296.859 59.6174C296.87 59.6414 296.882 59.6652 296.893 59.6889L300.471 57.9ZM302.171 75L304.884 77.9392C304.923 77.9031 304.962 77.8661 305 77.8284L302.171 75ZM258.571 76.2H254.571C254.571 78.4091 256.362 80.2 258.571 80.2V76.2ZM258.571 68.2V64.2C256.362 64.2 254.571 65.9909 254.571 68.2H258.571ZM298.571 68.2L300.827 71.5032C302.276 70.5138 302.911 68.6958 302.393 67.0195C301.875 65.3432 300.326 64.2 298.571 64.2V68.2ZM294.471 71L290.472 71.08C290.501 72.5485 291.333 73.8829 292.639 74.5557C293.945 75.2285 295.514 75.1316 296.727 74.3032L294.471 71ZM292.471 62.1L288.858 63.8162C288.864 63.8281 288.869 63.84 288.875 63.8519L292.471 62.1ZM268.771 56L266.689 52.5848C266.676 52.5925 266.664 52.6002 266.651 52.608L268.771 56ZM262.671 62.9L266.265 64.6553C266.271 64.6446 266.276 64.6337 266.281 64.6229L262.671 62.9ZM263.071 82.5L259.613 84.5105L263.071 82.5ZM269.971 89.3L271.947 85.8222L269.971 89.3ZM286.371 90.7L287.671 94.4827C287.694 94.4751 287.716 94.4672 287.738 94.4592L286.371 90.7ZM291.671 88L289.306 84.7744C289.294 84.7829 289.283 84.7914 289.271 84.8L291.671 88ZM294.871 86.9V90.9C294.945 90.9 295.019 90.8979 295.093 90.8938L294.871 86.9ZM297.971 87.9L300.618 84.9007C300.597 84.8824 300.576 84.8643 300.555 84.8465L297.971 87.9ZM299.771 91.2L303.765 90.9781L299.771 91.2ZM298.171 94.3L295.741 91.1226C295.722 91.1374 295.703 91.1524 295.684 91.1676L298.171 94.3ZM289.671 98.7L288.406 94.9053C288.399 94.9078 288.391 94.9103 288.383 94.9129L289.671 98.7ZM280.071 100.4V96.4C275.116 96.4 270.849 95.3603 267.167 93.3781L265.271 96.9L263.375 100.422C268.36 103.106 273.959 104.4 280.071 104.4V100.4ZM265.271 96.9L267.232 93.4137C263.563 91.3497 260.709 88.5737 258.606 85.0502L255.171 87.1L251.736 89.1498C254.567 93.8929 258.446 97.6503 263.31 100.386L265.271 96.9ZM255.171 87.1L258.644 85.1154C256.628 81.5878 255.571 77.4866 255.571 72.7H251.571H247.571C247.571 78.7134 248.914 84.2122 251.698 89.0846L255.171 87.1ZM251.571 72.7H255.571C255.571 67.7976 256.583 63.6791 258.478 60.2233L254.971 58.3L251.464 56.3767C248.826 61.1875 247.571 66.6691 247.571 72.7H251.571ZM254.971 58.3L258.468 60.2426C260.457 56.6626 263.143 53.9311 266.562 51.9695L264.571 48.5L262.58 45.0305C257.866 47.7356 254.152 51.5374 251.474 56.3574L254.971 58.3ZM264.571 48.5L266.604 51.9448C269.986 49.949 273.935 48.9 278.571 48.9V44.9V40.9C272.674 40.9 267.29 42.251 262.538 45.0552L264.571 48.5ZM278.571 44.9V48.9C283.159 48.9 286.861 49.9231 289.851 51.792L291.971 48.4L294.091 45.008C289.615 42.2102 284.383 40.9 278.571 40.9V44.9ZM291.971 48.4L289.895 51.8191C292.94 53.6676 295.249 56.2327 296.859 59.6174L300.471 57.9L304.084 56.1826C301.826 51.434 298.469 47.6657 294.047 44.9808L291.971 48.4ZM300.471 57.9L296.893 59.6889C298.57 63.0429 299.471 67.0445 299.471 71.8H303.471H307.471C307.471 66.0222 306.372 60.7571 304.049 56.1111L300.471 57.9ZM303.471 71.8H299.471C299.471 71.9691 299.444 72.0351 299.44 72.0445C299.438 72.0512 299.423 72.0914 299.343 72.1716L302.171 75L305 77.8284C306.644 76.184 307.471 74.0879 307.471 71.8H303.471ZM302.171 75L299.458 72.0608C299.428 72.0886 299.34 72.2 298.871 72.2V76.2V80.2C301.069 80.2 303.181 79.5114 304.884 77.9392L302.171 75ZM298.871 76.2V72.2H258.571V76.2V80.2H298.871V76.2ZM258.571 76.2H262.571V68.2H258.571H254.571V76.2H258.571ZM258.571 68.2V72.2H298.571V68.2V64.2H258.571V68.2ZM298.571 68.2L296.315 64.8968L292.215 67.6968L294.471 71L296.727 74.3032L300.827 71.5032L298.571 68.2ZM294.471 71L298.47 70.92C298.394 67.0951 297.624 63.5436 296.067 60.3481L292.471 62.1L288.875 63.8519C289.852 65.8564 290.415 68.2383 290.472 71.08L294.471 71ZM292.471 62.1L296.084 60.3838C294.522 57.095 292.249 54.4162 289.268 52.4572L287.071 55.8L284.874 59.1428C286.56 60.2505 287.887 61.7716 288.858 63.8162L292.471 62.1ZM287.071 55.8L289.268 52.4572C286.165 50.4179 282.531 49.5 278.571 49.5V53.5V57.5C281.277 57.5 283.311 58.1154 284.874 59.1428L287.071 55.8ZM278.571 53.5V49.5C274.175 49.5 270.158 50.4694 266.689 52.5848L268.771 56L270.854 59.4152C272.851 58.1973 275.367 57.5 278.571 57.5V53.5ZM268.771 56L266.651 52.608C263.317 54.692 260.777 57.5813 259.061 61.1771L262.671 62.9L266.281 64.6229C267.365 62.352 268.892 60.6413 270.891 59.392L268.771 56ZM262.671 62.9L259.077 61.1447C257.373 64.6342 256.571 68.5159 256.571 72.7H260.571H264.571C264.571 69.5507 265.17 66.8991 266.265 64.6553L262.671 62.9ZM260.571 72.7H256.571C256.571 76.9963 257.555 80.9702 259.613 84.5105L263.071 82.5L266.529 80.4895C265.254 78.2964 264.571 75.7371 264.571 72.7H260.571ZM263.071 82.5L259.613 84.5105C261.642 87.9998 264.458 90.7681 267.995 92.7778L269.971 89.3L271.947 85.8222C269.618 84.4986 267.834 82.7335 266.529 80.4895L263.071 82.5ZM269.971 89.3L267.995 92.7778C271.604 94.8282 275.667 95.8 280.071 95.8V91.8V87.8C276.875 87.8 274.205 87.1051 271.947 85.8222L269.971 89.3ZM280.071 91.8V95.8C282.619 95.8 285.158 95.3468 287.671 94.4827L286.371 90.7L285.071 86.9173C283.318 87.5199 281.657 87.8 280.071 87.8V91.8ZM286.371 90.7L287.738 94.4592C290.171 93.5745 292.324 92.5102 294.071 91.2L291.671 88L289.271 84.8C288.351 85.4898 286.971 86.2255 285.004 86.9408L286.371 90.7ZM291.671 88L294.037 91.2256C294.419 90.9454 294.669 90.9 294.871 90.9V86.9V82.9C292.806 82.9 290.924 83.5879 289.306 84.7744L291.671 88ZM294.871 86.9L295.093 90.8938C295.255 90.8849 295.317 90.9063 295.318 90.9068C295.322 90.9081 295.326 90.9095 295.332 90.9129C295.338 90.9166 295.357 90.9277 295.387 90.9535L297.971 87.9L300.555 84.8465C298.859 83.4111 296.804 82.7864 294.649 82.9062L294.871 86.9ZM297.971 87.9L295.325 90.8994C295.612 91.1529 295.723 91.3239 295.76 91.3904C295.777 91.4227 295.78 91.4359 295.779 91.4323C295.779 91.4313 295.778 91.4289 295.778 91.4259C295.777 91.4228 295.777 91.4212 295.777 91.4219L299.771 91.2L303.765 90.9781C303.624 88.4498 302.335 86.4162 300.618 84.9007L297.971 87.9ZM299.771 91.2L295.777 91.4219C295.776 91.3919 295.776 91.331 295.793 91.2506C295.81 91.1694 295.838 91.0968 295.867 91.0404C295.925 90.9265 295.943 90.9685 295.741 91.1226L298.171 94.3L300.601 97.4774C302.56 95.9793 303.92 93.7611 303.765 90.9781L299.771 91.2ZM298.171 94.3L295.684 91.1676C293.858 92.6172 291.465 93.8857 288.406 94.9053L289.671 98.7L290.936 102.495C294.677 101.248 297.951 99.5828 300.659 97.4324L298.171 94.3ZM289.671 98.7L288.383 94.9129C285.404 95.9258 282.64 96.4 280.071 96.4V100.4V104.4C283.635 104.4 287.271 103.741 290.959 102.487L289.671 98.7Z" fill="url(#paint1_linear_4_16)" mask="url(#path-2-outside-1_4_16)"/>
</g>
<defs>
<filter id="filter0_dd_4_16" x="0" y="0" width="328" height="136" filterUnits="userSpaceOnUse" color-interpolation-filters="sRGB">
<feFlood flood-opacity="0" result="BackgroundImageFix"/>
<feColorMatrix in="SourceAlpha" type="matrix" values="0 0 0 0 0 0 0 0 0 0 0 0 0 0 0 0 0 0 127 0" result="hardAlpha"/>
<feOffset dy="4"/>
<feGaussianBlur stdDeviation="2"/>
<feComposite in2="hardAlpha" operator="out"/>
<feColorMatrix type="matrix" values="0 0 0 0 0 0 0 0 0 0 0 0 0 0 0 0 0 0 0.25 0"/>
<feBlend mode="normal" in2="BackgroundImageFix" result="effect1_dropShadow_4_16"/>
<feColorMatrix in="SourceAlpha" type="matrix" values="0 0 0 0 0 0 0 0 0 0 0 0 0 0 0 0 0 0 127 0" result="hardAlpha"/>
<feOffset dy="4"/>
<feGaussianBlur stdDeviation="2"/>
<feComposite in2="hardAlpha" operator="out"/>
<feColorMatrix type="matrix" values="0 0 0 0 0 0 0 0 0 0 0 0 0 0 0 0 0 0 0.25 0"/>
<feBlend mode="normal" in2="effect1_dropShadow_4_16" result="effect2_dropShadow_4_16"/>
<feBlend mode="normal" in="SourceGraphic" in2="effect2_dropShadow_4_16" result="shape"/>
</filter>
<filter id="filter1_d_4_16" x="13.4" y="16.9" width="298.071" height="96.1" filterUnits="userSpaceOnUse" color-interpolation-filters="sRGB">
<feFlood flood-opacity="0" result="BackgroundImageFix"/>
<feColorMatrix in="SourceAlpha" type="matrix" values="0 0 0 0 0 0 0 0 0 0 0 0 0 0 0 0 0 0 127 0" result="hardAlpha"/>
<feOffset dy="4"/>
<feGaussianBlur stdDeviation="2"/>
<feComposite in2="hardAlpha" operator="out"/>
<feColorMatrix type="matrix" values="0 0 0 0 0 0 0 0 0 0 0 0 0 0 0 0 0 0 0.15 0"/>
<feBlend mode="normal" in2="BackgroundImageFix" result="effect1_dropShadow_4_16"/>
<feBlend mode="normal" in="SourceGraphic" in2="effect1_dropShadow_4_16" result="shape"/>
</filter>
<linearGradient id="paint0_linear_4_16" x1="164" y1="0" x2="164" y2="128" gradientUnits="userSpaceOnUse">
<stop stop-color="#7B62D4"/>
<stop offset="1" stop-color="#321B87"/>
</linearGradient>
<linearGradient id="paint1_linear_4_16" x1="161.5" y1="12" x2="161.5" y2="124" gradientUnits="userSpaceOnUse">
<stop stop-color="#E95BFF"/>
<stop offset="1" stop-color="#095BA4"/>
</linearGradient>
</defs>
</svg>
